<?xml version="1.0" encoding="UTF-8" standalone="no"?>
<!-- Created with Inkscape (http://www.inkscape.org/) -->

<svg
   version="1.1"
   id="svg24531"
   width="637.67786"
   height="641.30347"
   viewBox="0 0 637.67786 641.30347"
   sodipodi:docname="13107891_5138871.ai"
   xmlns:inkscape="http://www.inkscape.org/namespaces/inkscape"
   xmlns:sodipodi="http://sodipodi.sourceforge.net/DTD/sodipodi-0.dtd"
   xmlns="http://www.w3.org/2000/svg"
   xmlns:svg="http://www.w3.org/2000/svg">
  <defs
     id="defs24535">
    <clipPath
       clipPathUnits="userSpaceOnUse"
       id="clipPath24547">
      <path
         d="M 0,500 H 500 V 0 H 0 Z"
         id="path24545" />
    </clipPath>
    <clipPath
       clipPathUnits="userSpaceOnUse"
       id="clipPath24555">
      <path
         d="M 11.8552,469.328 H 490.116 V 23.146 H 11.8552 Z"
         id="path24553" />
    </clipPath>
    <clipPath
       clipPathUnits="userSpaceOnUse"
       id="clipPath24571">
      <path
         d="M 12.0508,464.623 H 489.552 V 25.2019 H 12.0508 Z"
         id="path24569" />
    </clipPath>
    <clipPath
       clipPathUnits="userSpaceOnUse"
       id="clipPath24587">
      <path
         d="M 0,500 H 500 V 0 H 0 Z"
         id="path24585" />
    </clipPath>
    <clipPath
       clipPathUnits="userSpaceOnUse"
       id="clipPath24595">
      <path
         d="M 43.6471,438.112 H 481.423 V 54.3683 H 43.6471 Z"
         id="path24593" />
    </clipPath>
    <clipPath
       clipPathUnits="userSpaceOnUse"
       id="clipPath24599">
      <path
         d="m 460.306,438.112 h 21.117 v -18.478 h -21.117 z"
         id="path24597" />
    </clipPath>
    <clipPath
       clipPathUnits="userSpaceOnUse"
       id="clipPath24603">
      <path
         d="m 453.099,428.873 h 15.06 V 415.25 h -15.06 z"
         id="path24601" />
    </clipPath>
    <clipPath
       clipPathUnits="userSpaceOnUse"
       id="clipPath24607">
      <path
         d="M 267.868,70.383 H 282.66 V 57.4395 h -14.792 z"
         id="path24605" />
    </clipPath>
    <clipPath
       clipPathUnits="userSpaceOnUse"
       id="clipPath24611">
      <path
         d="m 262.819,63.9112 h 10.55 v -9.5429 h -10.55 z"
         id="path24609" />
    </clipPath>
    <clipPath
       clipPathUnits="userSpaceOnUse"
       id="clipPath24615">
      <path
         d="m 52.2557,280.478 h 25.226 v -22.073 h -25.226 z"
         id="path24613" />
    </clipPath>
    <clipPath
       clipPathUnits="userSpaceOnUse"
       id="clipPath24619">
      <path
         d="M 43.6471,285.716 H 61.6369 V 269.442 H 43.6471 Z"
         id="path24617" />
    </clipPath>
    <clipPath
       clipPathUnits="userSpaceOnUse"
       id="clipPath24711">
      <path
         d="M 58.5488,470.977 H 126.277 V 441.235 H 58.5488 Z"
         id="path24709" />
    </clipPath>
    <clipPath
       clipPathUnits="userSpaceOnUse"
       id="clipPath24731">
      <path
         d="m 330.088,45.7146 h 67.728 V 15.9725 h -67.728 z"
         id="path24729" />
    </clipPath>
    <clipPath
       clipPathUnits="userSpaceOnUse"
       id="clipPath24843">
      <path
         d="m 258.346,210.028 h 63.743 v -87.385 h -63.743 z"
         id="path24841" />
    </clipPath>
    <clipPath
       clipPathUnits="userSpaceOnUse"
       id="clipPath24891">
      <path
         d="m 174.021,294.642 h 277.56 V 94.5104 h -277.56 z"
         id="path24889" />
    </clipPath>
    <clipPath
       clipPathUnits="userSpaceOnUse"
       id="clipPath24971">
      <path
         d="m 118.668,195.574 h 11.344 v -6.908 h -11.344 z"
         id="path24969" />
    </clipPath>
    <clipPath
       clipPathUnits="userSpaceOnUse"
       id="clipPath24987">
      <path
         d="m 49.365,249.282 h 84.962 V 162.714 H 49.365 Z"
         id="path24985" />
    </clipPath>
  </defs>
  <sodipodi:namedview
     id="namedview24533"
     pagecolor="#ffffff"
     bordercolor="#000000"
     borderopacity="0.25"
     inkscape:showpageshadow="2"
     inkscape:pageopacity="0.0"
     inkscape:pagecheckerboard="0"
     inkscape:deskcolor="#d1d1d1"
     showgrid="false" />
  <g
     id="g24539"
     inkscape:groupmode="layer"
     inkscape:label="Page 1"
     transform="matrix(1.3333333,0,0,-1.3333333,-15.806933,641.30345)">
    <g
       id="g24541">
      <g
         id="g24543"
         clip-path="url(#clipPath24547)">
        <g
           id="g24549">
          <g
             id="g24551" />
          <g
             id="g24563">
            <g
               clip-path="url(#clipPath24555)"
               opacity="0.300003"
               id="g24561">
              <g
                 transform="translate(218.7614,449.1765)"
                 id="g24559">
                <path
                   d="m 0,0 c -14.819,-12.592 -24.934,-29.699 -37.302,-44.706 -14.804,-17.96 -33.059,-33.065 -53.473,-44.244 -21.645,-11.854 -45.704,-19.363 -65.871,-33.586 -33.691,-23.759 -53.203,-66.237 -49.276,-107.276 3.926,-41.038 31.14,-79.045 68.725,-95.984 12.793,-5.766 26.578,-9.225 39.062,-15.634 40.947,-21.021 64.29,-71.565 109.068,-82.219 24.408,-5.808 50.666,2.243 70.899,17.079 20.232,14.836 35.136,35.836 47.346,57.754 11.775,21.136 22.741,44.904 44.13,56.217 14.89,7.876 32.599,8.339 48.291,14.467 33.393,13.042 52.53,51.733 48.813,87.39 -3.718,35.658 -26.924,67.258 -56.386,87.685 -17.709,12.279 -38.144,21.471 -51.956,38.012 -9.065,10.857 -14.613,24.14 -21.781,36.335 C 112.504,18.562 43.586,37.035 0,0 Z"
                   style="fill:none;stroke:#2c54ac;stroke-width:0.97;stroke-linecap:butt;stroke-linejoin:miter;stroke-miterlimit:10;stroke-dasharray:4.007, 4.007;stroke-dashoffset:0;stroke-opacity:1"
                   id="path24557" />
              </g>
            </g>
          </g>
        </g>
        <g
           id="g24565">
          <g
             id="g24567" />
          <g
             id="g24579">
            <g
               clip-path="url(#clipPath24571)"
               opacity="0.25"
               id="g24577">
              <g
                 transform="translate(245.8029,451.3849)"
                 id="g24575">
                <path
                   d="m 0,0 c -16.312,-10.587 -28.536,-26.257 -42.727,-39.553 -16.985,-15.913 -37.026,-28.552 -58.705,-37.022 -22.986,-8.98 -47.81,-13.342 -69.635,-24.862 -36.459,-19.242 -61.257,-58.868 -62.625,-100.07 -1.368,-41.202 20.747,-82.387 55.849,-104.005 11.948,-7.36 25.176,-12.557 36.735,-20.514 37.914,-26.099 54.582,-79.219 97.624,-95.527 23.462,-8.89 50.535,-4.273 72.503,7.846 21.969,12.119 39.441,31.035 54.361,51.206 14.389,19.452 28.312,41.617 50.975,50.094 15.777,5.902 33.4,4.089 49.747,8.155 34.791,8.652 58.731,44.569 59.617,80.409 0.887,35.84 -18.077,70.154 -44.676,94.192 -15.987,14.448 -35.076,26.185 -46.652,44.36 -7.599,11.93 -11.397,25.815 -16.941,38.827 C 113.955,3.982 47.975,31.14 0,0"
                   style="fill:#9ddcf9;fill-opacity:1;fill-rule:nonzero;stroke:none"
                   id="path24573" />
              </g>
            </g>
          </g>
        </g>
      </g>
    </g>
    <g
       id="g24581">
      <g
         id="g24583"
         clip-path="url(#clipPath24587)">
        <g
           id="g24589">
          <g
             id="g24591" />
          <g
             id="g24695">
            <g
               clip-path="url(#clipPath24595)"
               opacity="0.389999"
               id="g24693">
              <g
                 id="g24631">
                <g
                   id="g24621" />
                <g
                   id="g24629">
                  <g
                     clip-path="url(#clipPath24599)"
                     id="g24627">
                    <g
                       transform="translate(463.8942,419.634)"
                       id="g24625">
                      <path
                         d="m 0,0 h 13.94 c 1.982,0 3.588,1.606 3.588,3.588 v 11.301 c 0,1.982 -1.606,3.589 -3.588,3.589 H 0 c -1.982,0 -3.589,-1.607 -3.589,-3.589 V 3.588 C -3.589,1.606 -1.982,0 0,0"
                         style="fill:#2c54ac;fill-opacity:1;fill-rule:nonzero;stroke:none"
                         id="path24623" />
                    </g>
                  </g>
                </g>
              </g>
              <g
                 id="g24643">
                <g
                   id="g24633" />
                <g
                   id="g24641">
                  <g
                     clip-path="url(#clipPath24603)"
                     id="g24639">
                    <g
                       transform="translate(455.7008,415.2497)"
                       id="g24637">
                      <path
                         d="m 0,0 h 9.856 c 1.437,0 2.602,1.165 2.602,2.602 v 8.419 c 0,1.437 -1.165,2.602 -2.602,2.602 H 0 c -1.437,0 -2.602,-1.165 -2.602,-2.602 V 2.602 C -2.602,1.165 -1.437,0 0,0"
                         style="fill:#55a3f3;fill-opacity:1;fill-rule:nonzero;stroke:none"
                         id="path24635" />
                    </g>
                  </g>
                </g>
              </g>
              <g
                 id="g24655">
                <g
                   id="g24645" />
                <g
                   id="g24653">
                  <g
                     clip-path="url(#clipPath24607)"
                     id="g24651">
                    <g
                       transform="translate(270.3815,57.4391)"
                       id="g24649">
                      <path
                         d="m 0,0 h 9.765 c 1.388,0 2.513,1.126 2.513,2.514 v 7.917 c 0,1.387 -1.125,2.513 -2.513,2.513 H 0 c -1.389,0 -2.514,-1.126 -2.514,-2.513 V 2.514 C -2.514,1.126 -1.389,0 0,0"
                         style="fill:#2c54ac;fill-opacity:1;fill-rule:nonzero;stroke:none"
                         id="path24647" />
                    </g>
                  </g>
                </g>
              </g>
              <g
                 id="g24667">
                <g
                   id="g24657" />
                <g
                   id="g24665">
                  <g
                     clip-path="url(#clipPath24611)"
                     id="g24663">
                    <g
                       transform="translate(264.6422,54.3679)"
                       id="g24661">
                      <path
                         d="M 0,0 H 6.904 C 7.91,0 8.727,0.816 8.727,1.823 v 5.898 c 0,1.007 -0.817,1.822 -1.823,1.822 H 0 c -1.007,0 -1.822,-0.815 -1.822,-1.822 V 1.823 C -1.822,0.816 -1.007,0 0,0"
                         style="fill:#55a3f3;fill-opacity:1;fill-rule:nonzero;stroke:none"
                         id="path24659" />
                    </g>
                  </g>
                </g>
              </g>
              <g
                 id="g24679">
                <g
                   id="g24669" />
                <g
                   id="g24677">
                  <g
                     clip-path="url(#clipPath24615)"
                     id="g24675">
                    <g
                       transform="translate(56.5421,280.4782)"
                       id="g24673">
                      <path
                         d="m 0,0 h 16.653 c 2.368,0 4.286,-1.919 4.286,-4.287 v -13.499 c 0,-2.368 -1.918,-4.287 -4.286,-4.287 H 0 c -2.367,0 -4.287,1.919 -4.287,4.287 V -4.287 C -4.287,-1.919 -2.367,0 0,0"
                         style="fill:#2c54ac;fill-opacity:1;fill-rule:nonzero;stroke:none"
                         id="path24671" />
                    </g>
                  </g>
                </g>
              </g>
              <g
                 id="g24691">
                <g
                   id="g24681" />
                <g
                   id="g24689">
                  <g
                     clip-path="url(#clipPath24619)"
                     id="g24687">
                    <g
                       transform="translate(46.7555,285.7155)"
                       id="g24685">
                      <path
                         d="m 0,0 h 11.773 c 1.717,0 3.108,-1.392 3.108,-3.108 v -10.058 c 0,-1.716 -1.391,-3.107 -3.108,-3.107 H 0 c -1.717,0 -3.108,1.391 -3.108,3.107 V -3.108 C -3.108,-1.392 -1.717,0 0,0"
                         style="fill:#55a3f3;fill-opacity:1;fill-rule:nonzero;stroke:none"
                         id="path24683" />
                    </g>
                  </g>
                </g>
              </g>
            </g>
          </g>
        </g>
        <g
           id="g24697"
           transform="translate(178.1549,125.0095)">
          <path
             d="m 0,0 c 0,-4.342 -3.588,-7.885 -7.986,-7.885 -4.398,0 -7.987,3.543 -7.987,7.885 0,4.341 3.589,7.884 7.987,7.884 C -3.588,7.884 0,4.341 0,0 m -10.125,15.087 -1.052,-3.665 c -0.966,-0.263 -1.885,-0.636 -2.736,-1.114 l -3.376,1.853 -3.017,-2.978 1.878,-3.333 C -18.913,5.01 -19.291,4.103 -19.557,3.149 L -23.269,2.11 v -4.221 l 3.712,-1.039 c 0.266,-0.954 0.644,-1.861 1.129,-2.701 l -1.878,-3.333 3.017,-2.978 3.376,1.853 c 0.851,-0.477 1.77,-0.851 2.736,-1.114 l 1.052,-3.664 h 4.277 l 1.053,3.664 c 0.965,0.263 1.884,0.637 2.735,1.114 l 3.376,-1.853 3.017,2.978 -1.877,3.333 c 0.484,0.84 0.862,1.747 1.128,2.701 l 3.712,1.039 V 2.11 L 3.584,3.149 C 3.318,4.103 2.94,5.01 2.456,5.85 L 4.333,9.183 1.316,12.161 -2.06,10.308 c -0.851,0.478 -1.77,0.851 -2.735,1.114 l -1.053,3.665 z"
             style="fill:#2c54ac;fill-opacity:1;fill-rule:nonzero;stroke:none"
             id="path24699" />
        </g>
        <g
           id="g24701"
           transform="translate(209.7477,156.3561)">
          <path
             d="m 0,0 c 0,-6.117 -5.056,-11.107 -11.252,-11.107 -6.196,0 -11.252,4.99 -11.252,11.107 0,6.116 5.056,11.107 11.252,11.107 C -5.056,11.107 0,6.116 0,0 Z m -14.265,21.256 -1.483,-5.163 c -1.359,-0.369 -2.654,-0.897 -3.854,-1.571 l -4.756,2.613 -4.251,-4.197 2.646,-4.696 C -26.646,7.059 -27.179,5.78 -27.554,4.438 l -5.23,-1.464 v -5.948 l 5.23,-1.464 c 0.375,-1.342 0.908,-2.621 1.591,-3.804 l -2.646,-4.696 4.251,-4.197 4.756,2.613 c 1.2,-0.674 2.495,-1.201 3.854,-1.571 l 1.483,-5.163 h 6.026 l 1.483,5.163 c 1.36,0.37 2.654,0.897 3.854,1.571 l 4.756,-2.613 4.251,4.197 -2.646,4.696 c 0.683,1.183 1.216,2.462 1.591,3.804 l 5.23,1.464 V 2.974 L 5.05,4.438 C 4.675,5.78 4.142,7.059 3.459,8.242 l 2.646,4.696 -4.251,4.197 -4.756,-2.613 c -1.2,0.674 -2.494,1.202 -3.854,1.571 l -1.483,5.163 z"
             style="fill:none;stroke:#55a3f3;stroke-width:0.777;stroke-linecap:butt;stroke-linejoin:miter;stroke-miterlimit:10;stroke-dasharray:none;stroke-opacity:1"
             id="path24703" />
        </g>
        <g
           id="g24705">
          <g
             id="g24707" />
          <g
             id="g24723">
            <g
               clip-path="url(#clipPath24711)"
               opacity="0.399994"
               id="g24721">
              <g
                 transform="translate(89.5929,454.3224)"
                 id="g24715">
                <path
                   d="M 0,0 10.015,-10.015 35.147,15.119"
                   style="fill:none;stroke:#55a3f3;stroke-width:4.345;stroke-linecap:butt;stroke-linejoin:miter;stroke-miterlimit:10;stroke-dasharray:none;stroke-opacity:1"
                   id="path24713" />
              </g>
              <g
                 transform="translate(60.0851,454.3224)"
                 id="g24719">
                <path
                   d="M 0,0 10.015,-10.015 35.148,15.119"
                   style="fill:none;stroke:#55a3f3;stroke-width:4.345;stroke-linecap:butt;stroke-linejoin:miter;stroke-miterlimit:10;stroke-dasharray:none;stroke-opacity:1"
                   id="path24717" />
              </g>
            </g>
          </g>
        </g>
        <g
           id="g24725">
          <g
             id="g24727" />
          <g
             id="g24743">
            <g
               clip-path="url(#clipPath24731)"
               opacity="0.399994"
               id="g24741">
              <g
                 transform="translate(361.1324,29.0593)"
                 id="g24735">
                <path
                   d="M 0,0 10.015,-10.015 35.147,15.119"
                   style="fill:none;stroke:#55a3f3;stroke-width:4.345;stroke-linecap:butt;stroke-linejoin:miter;stroke-miterlimit:10;stroke-dasharray:none;stroke-opacity:1"
                   id="path24733" />
              </g>
              <g
                 transform="translate(331.6246,29.0593)"
                 id="g24739">
                <path
                   d="M 0,0 10.015,-10.015 35.147,15.119"
                   style="fill:none;stroke:#55a3f3;stroke-width:4.345;stroke-linecap:butt;stroke-linejoin:miter;stroke-miterlimit:10;stroke-dasharray:none;stroke-opacity:1"
                   id="path24737" />
              </g>
            </g>
          </g>
        </g>
        <g
           id="g24745"
           transform="translate(147.2067,316.4069)">
          <path
             d="m 0,0 h -105.921 c -6.372,0 -11.537,5.165 -11.537,11.537 V 82.07 c 0,6.372 5.165,11.537 11.537,11.537 H 0 c 6.372,0 11.537,-5.165 11.537,-11.537 V 11.537 C 11.537,5.165 6.372,0 0,0"
             style="fill:#9ddcf9;fill-opacity:1;fill-rule:nonzero;stroke:none"
             id="path24747" />
        </g>
        <g
           id="g24749"
           transform="translate(106.3732,319.4938)">
          <path
             d="M 0,0 -12.127,-27.799 -24.254,0 Z"
             style="fill:#9ddcf9;fill-opacity:1;fill-rule:nonzero;stroke:none"
             id="path24751" />
        </g>
        <g
           id="g24753"
           transform="translate(93.9401,328.2165)">
          <path
             d="m 0,0 -1.692,1.124 c -1.422,0.943 -34.822,23.348 -34.683,43.341 0.098,14.222 10.255,21.591 20.238,21.522 6.381,-0.044 12.338,-3.063 16.534,-8.238 4.253,5.107 10.26,8.053 16.652,8.009 9.982,-0.069 20.036,-7.58 19.937,-21.8 C 36.848,23.964 3.142,2.024 1.708,1.1 Z"
             style="fill:#ff675d;fill-opacity:1;fill-rule:nonzero;stroke:none"
             id="path24755" />
        </g>
        <g
           id="g24757"
           transform="translate(190.8073,446.7287)">
          <path
             d="M 0,0 C 16.018,0 29.087,-12.902 29.087,-28.715 29.087,-44.527 16.018,-57.43 0,-57.43 c -16.018,0 -29.087,12.903 -29.087,28.715 C -29.087,-12.902 -16.018,0 0,0 m -7.788,26.234 -3.835,-13.347 c -3.514,-0.956 -6.861,-2.317 -9.962,-4.059 L -33.879,15.58 -44.869,4.73 -38.03,-7.407 c -1.765,-3.061 -3.143,-6.364 -4.112,-9.834 l -13.52,-3.786 v -15.376 l 13.52,-3.785 c 0.969,-3.471 2.347,-6.774 4.112,-9.835 l -6.839,-12.137 10.99,-10.849 12.294,6.751 c 3.101,-1.741 6.448,-3.102 9.962,-4.058 l 3.835,-13.347 H 7.788 l 3.835,13.347 c 3.515,0.956 6.861,2.317 9.961,4.058 l 12.296,-6.751 10.99,10.849 -6.839,12.137 c 1.764,3.061 3.142,6.365 4.111,9.835 l 13.52,3.785 v 15.376 l -13.52,3.786 c -0.969,3.47 -2.347,6.773 -4.111,9.834 L 44.87,4.73 33.88,15.58 21.584,8.828 c -3.1,1.742 -6.446,3.103 -9.961,4.059 L 7.788,26.234 Z"
             style="fill:#55a3f3;fill-opacity:1;fill-rule:nonzero;stroke:none"
             id="path24759" />
        </g>
        <g
           id="g24761"
           transform="translate(190.8073,454.1642)">
          <path
             d="m 0,0 c 20.165,0 36.62,-16.244 36.62,-36.15 0,-19.907 -16.455,-36.151 -36.62,-36.151 -20.165,0 -36.62,16.244 -36.62,36.151 C -36.62,-16.244 -20.165,0 0,0 Z"
             style="fill:none;stroke:#ffffff;stroke-width:1;stroke-linecap:butt;stroke-linejoin:miter;stroke-miterlimit:10;stroke-dasharray:4;stroke-dashoffset:0;stroke-opacity:1"
             id="path24763" />
        </g>
        <g
           id="g24765"
           transform="translate(449.5533,72.7057)">
          <path
             d="m 0,0 c 9.069,0 16.47,-7.306 16.47,-16.259 0,-8.953 -7.401,-16.26 -16.47,-16.26 -9.07,0 -16.471,7.307 -16.471,16.26 C -16.471,-7.306 -9.07,0 0,0 Z M -4.41,14.854 -6.582,7.298 c -1.99,-0.542 -3.885,-1.313 -5.641,-2.299 l -6.962,3.823 -6.222,-6.143 3.872,-6.872 c -0.998,-1.734 -1.779,-3.604 -2.327,-5.569 l -7.657,-2.143 v -8.707 l 7.657,-2.144 c 0.548,-1.965 1.329,-3.835 2.327,-5.568 l -3.872,-6.873 6.222,-6.143 6.962,3.823 c 1.756,-0.986 3.651,-1.756 5.641,-2.298 l 2.172,-7.558 h 8.819 l 2.172,7.558 c 1.99,0.542 3.885,1.312 5.641,2.298 l 6.962,-3.823 6.222,6.143 -3.872,6.873 c 0.999,1.733 1.779,3.603 2.328,5.568 l 7.656,2.144 v 8.707 l -7.656,2.143 c -0.549,1.965 -1.329,3.835 -2.328,5.569 L 25.406,2.679 19.184,8.822 12.222,4.999 C 10.466,5.985 8.571,6.756 6.581,7.298 l -2.172,7.556 z"
             style="fill:none;stroke:#2c54ac;stroke-width:1;stroke-linecap:butt;stroke-linejoin:miter;stroke-miterlimit:10;stroke-dasharray:none;stroke-opacity:1"
             id="path24767" />
        </g>
        <g
           id="g24769"
           transform="translate(449.5533,77.7155)">
          <path
             d="m 0,0 c 11.863,0 21.544,-9.557 21.544,-21.269 0,-11.711 -9.681,-21.268 -21.544,-21.268 -11.864,0 -21.545,9.557 -21.545,21.268 C -21.545,-9.557 -11.864,0 0,0 Z"
             style="fill:none;stroke:#2c54ac;stroke-width:1;stroke-linecap:butt;stroke-linejoin:miter;stroke-miterlimit:10;stroke-dasharray:3.953, 3.953;stroke-dashoffset:0;stroke-opacity:1"
             id="path24771" />
        </g>
        <g
           id="g24773"
           transform="translate(476.7848,214.8259)">
          <path
             d="m 0,0 c 0,4.245 -3.44,7.686 -7.686,7.686 h -125.637 c -4.245,0 -7.687,-3.441 -7.687,-7.686 V -4.433 H 0 Z"
             style="fill:#2c54ac;fill-opacity:1;fill-rule:nonzero;stroke:none"
             id="path24775" />
        </g>
        <g
           id="g24777"
           transform="translate(335.775,210.3932)">
          <path
             d="m 0,0 v -95.93 c 0,-4.245 3.441,-7.685 7.687,-7.685 h 125.637 c 4.245,0 7.686,3.44 7.686,7.685 V 0 Z"
             style="fill:#9ddcf9;fill-opacity:1;fill-rule:nonzero;stroke:none"
             id="path24779" />
        </g>
        <g
           id="g24781"
           transform="translate(445.8424,216.4518)">
          <path
             d="m 0,0 c 0,-1.581 -1.282,-2.864 -2.864,-2.864 -1.582,0 -2.865,1.283 -2.865,2.864 0,1.582 1.283,2.865 2.865,2.865 C -1.282,2.865 0,1.582 0,0"
             style="fill:#55a3f3;fill-opacity:1;fill-rule:nonzero;stroke:none"
             id="path24783" />
        </g>
        <g
           id="g24785"
           transform="translate(457.2721,216.4518)">
          <path
             d="m 0,0 c 0,-1.581 -1.282,-2.864 -2.864,-2.864 -1.582,0 -2.865,1.283 -2.865,2.864 0,1.582 1.283,2.865 2.865,2.865 C -1.282,2.865 0,1.582 0,0"
             style="fill:#ffffff;fill-opacity:1;fill-rule:nonzero;stroke:none"
             id="path24787" />
        </g>
        <g
           id="g24789"
           transform="translate(468.7028,216.4518)">
          <path
             d="m 0,0 c 0,-1.581 -1.282,-2.864 -2.864,-2.864 -1.582,0 -2.865,1.283 -2.865,2.864 0,1.582 1.283,2.865 2.865,2.865 C -1.282,2.865 0,1.582 0,0"
             style="fill:#ff4648;fill-opacity:1;fill-rule:nonzero;stroke:none"
             id="path24791" />
        </g>
        <g
           id="g24793"
           transform="translate(427.0963,168.1677)">
          <path
             d="m 0,0 h -22.285 c -1.161,0 -2.179,0.777 -2.486,1.897 -0.305,1.121 0.175,2.307 1.175,2.898 9.71,5.737 14.753,12.431 15.418,20.461 0.233,2.787 2.715,5.013 5.532,4.976 2.875,-0.046 5.57,-1.199 7.587,-3.246 2.019,-2.049 3.131,-4.762 3.132,-7.639 V 19.346 18.479 C 8.073,11.45 5.991,6.968 2.149,1.156 1.673,0.435 0.865,0 0,0"
             style="fill:#ff8775;fill-opacity:1;fill-rule:nonzero;stroke:none"
             id="path24795" />
        </g>
        <g
           id="g24797"
           transform="translate(454.4078,165.2477)">
          <path
             d="m 0,0 c 0,4.452 -3.621,8.073 -8.073,8.073 h -41.524 c -0.461,0 -0.914,-0.124 -1.311,-0.358 C -53.823,5.991 -56.766,4.572 -59.131,3.433 -59.955,3.034 -60.734,2.659 -61.443,2.305 -62.316,1.868 -62.867,0.977 -62.867,0 v -32.979 c 0,-0.977 0.551,-1.869 1.424,-2.305 10.411,-5.205 19.065,-5.834 29.157,-5.834 1.562,0 3.161,0.014 4.805,0.03 1.817,0.017 3.696,0.035 5.667,0.035 h 8.145 c 4.451,0 8.073,3.621 8.073,8.074 0,1.496 -0.409,2.899 -1.122,4.102 2.32,1.42 3.87,3.978 3.87,6.891 0,1.497 -0.409,2.899 -1.122,4.102 2.32,1.42 3.87,3.978 3.87,6.891 0,2.094 -0.8,4.004 -2.112,5.439 C -0.783,-4.048 0,-2.084 0,0"
             style="fill:#ff8775;fill-opacity:1;fill-rule:nonzero;stroke:none"
             id="path24799" />
        </g>
        <g
           id="g24801"
           transform="translate(385.6656,137.7321)">
          <path
             d="M 0,0 V -13.57 H -5.153 V 0 c 0,1.422 1.154,2.576 2.576,2.576 C -1.154,2.576 0,1.422 0,0"
             style="fill:#73c3ff;fill-opacity:1;fill-rule:nonzero;stroke:none"
             id="path24803" />
        </g>
        <g
           id="g24805"
           transform="translate(385.6656,137.7321)">
          <path
             d="M 0,0 V -13.57 H -5.153 V 0 c 0,1.422 1.154,2.576 2.576,2.576 C -1.154,2.576 0,1.422 0,0"
             style="fill:#73c3ff;fill-opacity:1;fill-rule:nonzero;stroke:none"
             id="path24807" />
        </g>
        <g
           id="g24809"
           transform="translate(394.0826,173.321)">
          <path
             d="m 0,0 h -21.987 c -1.422,0 -2.576,-1.154 -2.576,-2.576 V -46.55 c 0,-1.424 1.154,-2.576 2.576,-2.608 h 16.49 c 3.159,0.032 5.898,1.854 7.223,4.503 0.545,1.084 0.85,2.308 0.85,3.602 V -2.576 C 2.576,-1.154 1.422,0 0,0"
             style="fill:#2c54ac;fill-opacity:1;fill-rule:nonzero;stroke:none"
             id="path24811" />
        </g>
        <g
           id="g24813"
           transform="translate(385.6656,137.904)">
          <path
             d="M 0,0 V -13.742 H -5.153 V 0 c 0,1.422 1.154,2.576 2.576,2.576 C -1.154,2.576 0,1.422 0,0"
             style="fill:#0a2a6b;fill-opacity:1;fill-rule:nonzero;stroke:none"
             id="path24815" />
        </g>
        <g
           id="g24817"
           transform="translate(342.5328,110.4802)">
          <path
             d="m 0,0 -22.772,-12.719 c -4.537,-2.534 -10.252,-1.239 -13.254,3.002 l -77.76,109.886 49.115,27.433 58.584,-104.889 c 1.119,-2.002 2.882,-3.567 5.002,-4.442 C 6.777,15.033 7.424,4.146 0,0"
             style="fill:#2c54ac;fill-opacity:1;fill-rule:nonzero;stroke:none"
             id="path24819" />
        </g>
        <g
           id="g24821"
           transform="translate(339.025,108.5212)">
          <path
             d="m 0,0 -22.772,-12.72 c -4.537,-2.533 -10.253,-1.238 -13.254,3.003 l -77.76,109.886 49.115,27.433 L -6.087,22.713 C -4.969,20.71 -3.205,19.146 -1.085,18.271 6.777,15.032 7.424,4.146 0,0"
             style="fill:#0a2a6b;fill-opacity:1;fill-rule:nonzero;stroke:none"
             id="path24823" />
        </g>
        <g
           id="g24825"
           transform="translate(197.7838,252.2761)">
          <path
             d="M 0,0 C 15.858,-28.394 20.301,-56.109 9.923,-61.906 -0.455,-67.703 -21.724,-49.385 -37.583,-20.991 -53.441,7.402 -57.884,35.118 -47.506,40.915 -37.128,46.711 -15.859,28.393 0,0"
             style="fill:#55a3f3;fill-opacity:1;fill-rule:nonzero;stroke:none"
             id="path24827" />
        </g>
        <g
           id="g24829"
           transform="translate(312.3561,443.2233)">
          <path
             d="m 0,0 c -27.899,-52.148 -69.332,-95.729 -119.846,-126.224 -4.471,-11.122 1.088,-35.039 14.721,-59.447 13.632,-24.407 31.081,-41.684 42.896,-43.71 52.457,27.019 111.292,39.441 170.325,35.848 l 3.64,-0.222 L 1.721,3.216 Z"
             style="fill:#9ddcf9;fill-opacity:1;fill-rule:nonzero;stroke:none"
             id="path24831" />
        </g>
        <g
           id="g24833"
           transform="translate(207.2306,257.5524)">
          <path
             d="m 0,0 c -13.632,24.408 -19.192,48.325 -14.721,59.447 -3.16,-1.908 -6.353,-3.769 -9.584,-5.573 L -56.953,35.638 0.476,-67.183 33.124,-48.947 c 3.23,1.804 6.49,3.547 9.772,5.237 C 31.082,-41.685 13.633,-24.407 0,0"
             style="fill:#55a3f3;fill-opacity:1;fill-rule:nonzero;stroke:none"
             id="path24835" />
        </g>
        <g
           id="g24837">
          <g
             id="g24839" />
          <g
             id="g24883">
            <g
               clip-path="url(#clipPath24843)"
               opacity="0.300003"
               id="g24881">
              <g
                 transform="translate(280.5836,205.1618)"
                 id="g24847">
                <path
                   d="m 0,0 -18.372,-10.262 c -1.253,-0.7 -2.836,-0.252 -3.535,1.001 -0.7,1.253 -0.251,2.836 1.001,3.535 L -2.533,4.536 C -1.281,5.235 0.302,4.787 1.001,3.535 1.701,2.282 1.253,0.699 0,0"
                   style="fill:#55a3f3;fill-opacity:1;fill-rule:nonzero;stroke:none"
                   id="path24845" />
              </g>
              <g
                 transform="translate(285.6051,196.1706)"
                 id="g24851">
                <path
                   d="m 0,0 -18.372,-10.262 c -1.253,-0.699 -2.835,-0.251 -3.535,1.002 -0.699,1.252 -0.251,2.835 1.002,3.534 L -2.533,4.536 C -1.28,5.236 0.302,4.788 1.002,3.535 1.701,2.282 1.253,0.7 0,0"
                   style="fill:#55a3f3;fill-opacity:1;fill-rule:nonzero;stroke:none"
                   id="path24849" />
              </g>
              <g
                 transform="translate(290.6276,187.1794)"
                 id="g24855">
                <path
                   d="m 0,0 -18.373,-10.261 c -1.252,-0.7 -2.835,-0.252 -3.535,1.001 -0.699,1.253 -0.251,2.835 1.002,3.535 L -2.534,4.537 C -1.281,5.236 0.301,4.788 1.001,3.535 1.7,2.283 1.252,0.7 0,0"
                   style="fill:#55a3f3;fill-opacity:1;fill-rule:nonzero;stroke:none"
                   id="path24853" />
              </g>
              <g
                 transform="translate(295.649,178.1891)"
                 id="g24859">
                <path
                   d="m 0,0 -18.372,-10.262 c -1.253,-0.7 -2.836,-0.251 -3.535,1.001 -0.7,1.253 -0.252,2.836 1.001,3.535 L -2.534,4.536 C -1.281,5.236 0.302,4.787 1.001,3.535 1.701,2.282 1.252,0.699 0,0"
                   style="fill:#55a3f3;fill-opacity:1;fill-rule:nonzero;stroke:none"
                   id="path24857" />
              </g>
              <g
                 transform="translate(300.6705,169.1979)"
                 id="g24863">
                <path
                   d="m 0,0 -18.372,-10.262 c -1.253,-0.699 -2.836,-0.251 -3.535,1.002 -0.7,1.252 -0.251,2.835 1.001,3.535 L -2.533,4.536 C -1.281,5.236 0.302,4.788 1.001,3.535 1.701,2.282 1.253,0.7 0,0"
                   style="fill:#55a3f3;fill-opacity:1;fill-rule:nonzero;stroke:none"
                   id="path24861" />
              </g>
              <g
                 transform="translate(305.692,160.2077)"
                 id="g24867">
                <path
                   d="m 0,0 -18.372,-10.262 c -1.253,-0.7 -2.835,-0.252 -3.535,1.001 -0.699,1.253 -0.251,2.835 1.002,3.535 L -2.533,4.536 C -1.281,5.235 0.302,4.787 1.002,3.535 1.701,2.282 1.253,0.699 0,0"
                   style="fill:#55a3f3;fill-opacity:1;fill-rule:nonzero;stroke:none"
                   id="path24865" />
              </g>
              <g
                 transform="translate(310.7135,151.2165)"
                 id="g24871">
                <path
                   d="m 0,0 -18.372,-10.262 c -1.253,-0.699 -2.835,-0.251 -3.535,1.001 -0.699,1.253 -0.251,2.836 1.002,3.535 L -2.533,4.536 C -1.28,5.236 0.302,4.788 1.002,3.535 1.701,2.282 1.253,0.699 0,0"
                   style="fill:#55a3f3;fill-opacity:1;fill-rule:nonzero;stroke:none"
                   id="path24869" />
              </g>
              <g
                 transform="translate(315.736,142.2253)"
                 id="g24875">
                <path
                   d="m 0,0 -18.373,-10.262 c -1.252,-0.699 -2.835,-0.251 -3.534,1.002 -0.7,1.253 -0.252,2.835 1.001,3.535 L -2.534,4.537 C -1.281,5.236 0.302,4.788 1.001,3.535 1.701,2.283 1.252,0.7 0,0"
                   style="fill:#55a3f3;fill-opacity:1;fill-rule:nonzero;stroke:none"
                   id="path24873" />
              </g>
              <g
                 transform="translate(320.7574,133.235)"
                 id="g24879">
                <path
                   d="m 0,0 -18.372,-10.262 c -1.253,-0.7 -2.836,-0.252 -3.535,1.001 -0.7,1.253 -0.252,2.836 1.001,3.535 L -2.534,4.536 C -1.281,5.235 0.302,4.787 1.001,3.535 1.701,2.282 1.253,0.699 0,0"
                   style="fill:#55a3f3;fill-opacity:1;fill-rule:nonzero;stroke:none"
                   id="path24877" />
              </g>
            </g>
          </g>
        </g>
        <g
           id="g24885">
          <g
             id="g24887" />
          <g
             id="g24899">
            <g
               clip-path="url(#clipPath24891)"
               opacity="0.300003"
               id="g24897">
              <g
                 transform="translate(315.5963,280.7018)"
                 id="g24895">
                <path
                   d="m 0,0 c -50.86,-14.579 -98.338,-39.486 -141.575,-70.066 12.808,-15.919 26.132,-24.485 33.685,-20.266 l 21.858,12.208 73.434,-103.773 c 3.001,-4.242 8.718,-5.537 13.254,-3.003 l 22.773,12.719 3.508,1.959 c 7.423,4.147 6.777,15.034 -1.085,18.272 -2.121,0.874 -3.883,2.439 -5.002,4.441 l -53.288,95.408 c 43.571,16.671 90.368,23.946 137.293,21.089 l 3.641,-0.221 -0.054,0.097 c 5.795,-1.204 10.996,-0.711 15.332,1.712 10.101,5.641 13.763,20.726 11.622,40.973 C 90.27,17.228 43.825,12.563 0,0"
                   style="fill:#55a3f3;fill-opacity:1;fill-rule:nonzero;stroke:none"
                   id="path24893" />
              </g>
            </g>
          </g>
        </g>
        <g
           id="g24901"
           transform="translate(421.0065,377.0085)">
          <path
             d="m 0,0 c 31.974,-57.246 40.196,-113.538 18.364,-125.731 -21.831,-12.194 -65.448,24.329 -97.422,81.574 C -111.031,13.089 -119.254,69.38 -97.423,81.574 -75.592,93.768 -31.974,57.246 0,0"
             style="fill:#55a3f3;fill-opacity:1;fill-rule:nonzero;stroke:none"
             id="path24903" />
        </g>
        <g
           id="g24905"
           transform="translate(416.8209,374.6706)">
          <path
             d="m 0,0 c 29.601,-52.998 37.774,-104.8 18.255,-115.702 -19.52,-10.902 -59.34,23.223 -88.942,76.221 C -100.288,13.517 -108.461,65.318 -88.941,76.221 -69.422,87.123 -29.602,52.998 0,0"
             style="fill:#0a2a6b;fill-opacity:1;fill-rule:nonzero;stroke:none"
             id="path24907" />
        </g>
        <g
           id="g24909"
           transform="translate(422.7682,403.7975)">
          <path
             d="m 0,0 -18.424,-8.759 c 4.295,-6.404 8.48,-13.212 12.477,-20.368 1.015,-1.818 2.003,-3.635 2.968,-5.449 l 16.367,10.606 c 6.083,3.942 8.064,11.926 4.53,18.254 H 17.917 C 14.383,0.611 6.546,3.112 0,0"
             style="fill:#2c54ac;fill-opacity:1;fill-rule:nonzero;stroke:none"
             id="path24911" />
        </g>
        <g
           id="g24913"
           transform="translate(404.3444,395.0388)">
          <path
             d="m 0,0 -71.116,-33.81 c 3.697,-8.527 8.006,-17.266 12.906,-26.039 1.895,-3.392 3.832,-6.706 5.802,-9.937 l 67.852,43.969 c -0.965,1.814 -1.952,3.63 -2.967,5.449 C 8.479,-13.212 4.295,-6.404 0,0"
             style="fill:#2c54ac;fill-opacity:1;fill-rule:nonzero;stroke:none"
             id="path24915" />
        </g>
        <g
           id="g24917"
           transform="translate(130.4479,107.7507)">
          <path
             d="m 0,0 69.754,-22.712 43.993,57.174 15.325,-11.841 -50.69,-82.447 -84.475,18.774 z"
             style="fill:#0a2a6b;fill-opacity:1;fill-rule:nonzero;stroke:none"
             id="path24919" />
        </g>
        <g
           id="g24921"
           transform="translate(80.3317,148.4577)">
          <path
             d="m 0,0 c 0.063,-8.813 0.399,-17.36 0.902,-26.159 4.869,-6.815 11.542,-12.631 19.571,-15.013 5.652,-1.677 11.686,-1.585 17.541,-0.895 5.184,0.611 10.126,1.953 14.366,4.998 -2.401,3.754 -4.852,7.627 -5.687,12.005 -0.544,2.852 -1.015,32.038 -1.015,32.038 0,0 13.28,3.672 18.279,6.6 1.519,0.89 3.099,1.89 3.877,3.468 0.757,1.534 0.62,3.343 0.398,5.039 -0.404,3.097 -1.007,6.211 -1.854,9.219 -5.726,0.539 -10.769,2.794 -15.215,6.444 4.105,0.121 8.358,0.634 12.363,1.538 -0.783,1.451 -1.258,3.13 -1.825,4.679 3.075,3.52 6.209,7.135 9.019,10.869 -5.755,2.941 -11.582,6.402 -17.035,9.872 -2.308,5.758 -5.367,11.213 -9.075,16.187 -1.555,2.086 -4.402,3.129 -6.934,3.73 C 32.337,85.887 26.628,85.216 21.54,83.162 16.452,81.108 11.963,77.722 8.234,73.696 1.625,66.562 -2.675,57.32 -3.877,47.669 -4.723,40.876 -4.07,33.99 -3.239,27.195 -2.12,18.048 -0.066,9.215 0,0"
             style="fill:#ff8775;fill-opacity:1;fill-rule:nonzero;stroke:none"
             id="path24923" />
        </g>
        <g
           id="g24925"
           transform="translate(124.9406,228.5632)">
          <path
             d="m 0,0 c 0,0 -18.062,-9.822 -28.409,-9.681 1.009,-3.474 2.417,-6.818 3.821,-10.153 2.648,-6.286 4.893,-12.344 7.541,-18.63 -2.296,-1.158 -4.784,-1.967 -7.246,-2.706 -1.848,4.275 -3.835,8.765 -5.683,13.04 -3.875,0.948 -8.095,-1.654 -9.569,-5.361 -1.474,-3.707 -0.472,-8.108 1.954,-11.275 1.356,-1.768 3.161,-3.234 5.27,-3.955 2.308,-0.788 4.995,-0.502 7.429,-0.354 4.089,-13.128 2.227,-27.459 -5.241,-39.004 0.298,3.727 0.125,7.543 -1.102,11.075 -2.452,-7.241 -6.676,-13.457 -12.703,-18.161 -0.377,7.434 -3.737,14.434 -8.013,20.527 -4.275,6.094 -9.483,11.465 -14.192,17.23 -4.71,5.765 -8.997,12.082 -10.984,19.256 -1.987,7.173 -1.883,15.965 2.517,21.969 -3.54,3.583 -3.845,9.546 -1.638,14.074 2.207,4.527 6.477,7.754 11.048,9.869 4.571,2.116 9.513,3.271 14.326,4.756 7.017,2.164 13.811,5.047 20.243,8.591 5.42,2.988 10.833,6.528 16.996,7.103 4.575,0.428 9.147,-0.842 13.425,-2.524 C 5.693,23.366 11.725,19.731 13.844,13.752 15.571,8.883 13.845,3.708 11.349,-0.816 11.486,2.583 10.878,6.387 9.075,9.272 9.741,3.819 8.636,-2.444 4.551,-6.117 2.771,-3.064 0,0 0,0"
             style="fill:#0a2a6b;fill-opacity:1;fill-rule:nonzero;stroke:none"
             id="path24927" />
        </g>
        <g
           id="g24929"
           transform="translate(154.2663,-3e-4)">
          <path
             d="m 0,0 c 0,0 -1.399,53.912 -6.438,76.026 -5.039,22.115 -17.253,38.807 -17.253,38.807 L -39.168,111.243 -23.854,0 Z"
             style="fill:#55a3f3;fill-opacity:1;fill-rule:nonzero;stroke:none"
             id="path24931" />
        </g>
        <g
           id="g24933"
           transform="translate(46.5739,-3e-4)">
          <path
             d="m 0,0 34.429,133.398 c 0,0 28.195,-4.745 39.672,-19.021 C 85.578,100.101 90.412,84.449 90.412,84.449 L 145.763,59.79 212.205,111.607 227.657,89.932 151.921,29.838 92.908,42.715 98.175,0 Z"
             style="fill:#0a2a6b;fill-opacity:1;fill-rule:nonzero;stroke:none"
             id="path24935" />
        </g>
        <g
           id="g24937"
           transform="translate(250.1266,104.8591)">
          <path
             d="m 0,0 -14.326,-11.423 -14.365,-11.372 c -9.575,-7.585 -19.193,-15.114 -28.812,-22.641 l -0.216,-0.168 -0.252,0.107 -24.834,10.518 -24.806,10.583 -24.767,10.674 -24.721,10.785 24.934,-10.282 24.888,-10.391 24.848,-10.483 24.821,-10.548 -0.467,-0.061 c 9.643,7.496 19.288,14.99 28.977,22.429 l 14.53,11.161 z"
             style="fill:#9ddcf9;fill-opacity:1;fill-rule:nonzero;stroke:none"
             id="path24939" />
        </g>
        <g
           id="g24941"
           transform="translate(139.4821,42.7145)">
          <path
             d="m 0,0 c -3.415,0.614 -6.804,1.336 -10.189,2.074 -3.388,0.727 -6.758,1.53 -10.127,2.333 -3.364,0.826 -6.727,1.655 -10.072,2.558 l -5.017,1.359 c -1.663,0.489 -3.335,0.944 -4.991,1.461 1.709,-0.298 3.404,-0.658 5.107,-0.984 l 5.082,-1.088 c 3.388,-0.728 6.757,-1.53 10.126,-2.335 3.364,-0.827 6.727,-1.655 10.072,-2.56 C -6.662,1.925 -3.318,1.016 0,0"
             style="fill:#9ddcf9;fill-opacity:1;fill-rule:nonzero;stroke:none"
             id="path24943" />
        </g>
        <g
           id="g24945"
           transform="translate(126.0094,155.4313)">
          <path
             d="M 0,0 -10.912,-2.939 0.094,-5.227 Z"
             style="fill:#0a2a6b;fill-opacity:1;fill-rule:nonzero;stroke:none"
             id="path24947" />
        </g>
        <g
           id="g24949"
           transform="translate(128.0402,206.4225)">
          <path
             d="m 0,0 c 0,-1.643 -1.332,-2.975 -2.975,-2.975 -1.642,0 -2.974,1.332 -2.974,2.975 0,1.643 1.332,2.975 2.974,2.975 C -1.332,2.975 0,1.643 0,0"
             style="fill:#0a2a6b;fill-opacity:1;fill-rule:nonzero;stroke:none"
             id="path24951" />
        </g>
        <g
           id="g24953"
           transform="translate(113.4728,205.8972)">
          <path
             d="m 0,0 c -0.299,1.967 -0.125,4.036 0.418,6.045 0.286,1 0.665,1.985 1.137,2.94 0.493,0.942 1.077,1.849 1.752,2.703 0.677,0.848 1.38,1.708 2.186,2.486 0.81,0.769 1.785,1.35 2.849,1.682 2.119,0.642 4.497,0.68 6.561,-0.555 l 0.038,-0.499 C 13.187,13.276 11.808,12.306 10.459,11.326 9.79,10.849 9.103,10.465 8.349,10.131 7.592,9.804 6.83,9.419 6.172,8.896 5.511,8.379 4.89,7.79 4.32,7.14 3.729,6.503 3.188,5.801 2.71,5.046 1.723,3.547 0.988,1.834 0.5,-0.024 Z"
             style="fill:#0a2a6b;fill-opacity:1;fill-rule:nonzero;stroke:none"
             id="path24955" />
        </g>
        <g
           id="g24957"
           transform="translate(98.1808,182.4225)">
          <path
             d="m 0,0 c -1.604,0.409 -3.325,0.891 -4.355,2.187 -0.361,0.453 -0.622,1.028 -0.535,1.601 0.143,0.94 1.141,1.501 2.074,1.686 0.822,0.163 1.68,0.143 2.494,-0.057 -0.619,1.972 -1.511,3.857 -2.644,5.587 -0.703,1.072 -1.552,2.127 -2.733,2.625 -1.06,0.447 -2.325,0.378 -3.33,-0.182 -1.005,-0.56 -1.728,-1.599 -1.906,-2.736 0,0 -1.11,-3.899 2.991,-8.357 C -3.843,-2.103 0,0 0,0"
             style="fill:#ff5748;fill-opacity:1;fill-rule:nonzero;stroke:none"
             id="path24959" />
        </g>
        <g
           id="g24961"
           transform="translate(87.2462,193.1335)">
          <path
             d="M 0,0 C 0.092,1.418 1.107,2.802 2.552,3.299 3.267,3.544 4.054,3.596 4.808,3.428 5.57,3.266 6.263,2.863 6.831,2.365 c 1.124,-1.033 1.865,-2.277 2.57,-3.53 0.697,-1.264 1.252,-2.605 1.674,-3.984 l 0.25,-0.819 -0.828,0.203 C 9.615,-5.548 8.631,-5.528 7.777,-5.781 6.927,-6.038 6.201,-6.666 6.415,-7.503 6.611,-8.342 7.38,-9.05 8.188,-9.549 c 0.834,-0.514 1.799,-0.822 2.747,-1.162 -0.995,0.16 -1.989,0.372 -2.94,0.795 -0.476,0.208 -0.929,0.494 -1.319,0.864 -0.386,0.364 -0.742,0.81 -0.915,1.376 -0.19,0.561 -0.067,1.274 0.319,1.753 0.374,0.49 0.892,0.781 1.416,0.971 1.064,0.352 2.165,0.381 3.232,0.129 L 10.15,-5.439 C 9.724,-4.125 9.18,-2.852 8.542,-1.627 7.874,-0.428 7.189,0.823 6.253,1.739 5.356,2.688 4.004,3.133 2.708,2.784 1.426,2.481 0.34,1.378 0,0"
             style="fill:#0a2a6b;fill-opacity:1;fill-rule:nonzero;stroke:none"
             id="path24963" />
        </g>
        <g
           id="g24965">
          <g
             id="g24967" />
          <g
             id="g24979">
            <g
               clip-path="url(#clipPath24971)"
               opacity="0.600006"
               id="g24977">
              <g
                 transform="translate(129.9625,193.4284)"
                 id="g24975">
                <path
                   d="m 0,0 c 0.41,-1.765 -1.774,-3.781 -4.879,-4.504 -3.105,-0.723 -5.955,0.122 -6.366,1.888 -0.41,1.764 1.774,3.781 4.879,4.504 C -3.261,2.61 -0.411,1.765 0,0"
                   style="fill:#ff675d;fill-opacity:1;fill-rule:nonzero;stroke:none"
                   id="path24973" />
              </g>
            </g>
          </g>
        </g>
        <g
           id="g24981">
          <g
             id="g24983" />
          <g
             id="g25015">
            <g
               clip-path="url(#clipPath24987)"
               opacity="0.199997"
               id="g25013">
              <g
                 transform="translate(134.3268,237.5593)"
                 id="g24991">
                <path
                   d="m 0,0 c -0.649,1.947 -1.899,3.617 -3.348,5.026 -1.463,1.404 -3.1,2.636 -4.831,3.676 -1.73,1.036 -3.603,1.861 -5.571,2.191 -1.964,0.349 -3.98,0.102 -5.84,-0.608 -1.868,-0.698 -3.593,-1.763 -5.297,-2.864 -1.697,-1.118 -3.418,-2.253 -5.178,-3.304 -3.518,-2.112 -7.185,-3.999 -11.015,-5.514 -3.831,-1.498 -7.849,-2.575 -11.904,-3.203 -4.045,-0.659 -8.096,-1.138 -12.008,-2.177 -3.878,-1.053 -7.699,-2.754 -10.516,-5.661 -2.804,-2.841 -4.562,-6.965 -3.876,-11.041 -0.456,1.999 -0.276,4.124 0.38,6.076 0.646,1.962 1.747,3.764 3.139,5.3 2.836,3.074 6.734,4.903 10.664,6.066 3.965,1.18 8.062,1.633 12.065,2.335 4.015,0.652 7.923,1.736 11.692,3.234 3.779,1.464 7.415,3.3 10.914,5.365 1.755,1.032 3.453,2.133 5.175,3.249 1.722,1.108 3.522,2.172 5.506,2.86 1.97,0.705 4.154,0.923 6.211,0.506 2.062,-0.398 3.978,-1.289 5.715,-2.395 C -6.194,7.989 -4.592,6.688 -3.16,5.212 -1.738,3.737 -0.545,1.979 0,0"
                   style="fill:#9ddcf9;fill-opacity:1;fill-rule:nonzero;stroke:none"
                   id="path24989" />
              </g>
              <g
                 transform="translate(127.4332,225.486)"
                 id="g24995">
                <path
                   d="m 0,0 c 1.239,1.462 1.937,3.324 2.035,5.208 0.129,1.887 -0.285,3.783 -1.058,5.483 -0.79,1.694 -1.972,3.216 -3.48,4.295 -1.494,1.089 -3.357,1.624 -5.15,1.253 -1.797,-0.337 -3.45,-1.284 -4.989,-2.355 -1.552,-1.071 -3.006,-2.289 -4.438,-3.546 -2.858,-2.506 -5.664,-5.202 -9.076,-7.142 -1.704,-0.96 -3.574,-1.642 -5.479,-2.064 -1.91,-0.41 -3.852,-0.588 -5.781,-0.635 -3.861,-0.099 -7.679,0.263 -11.468,0.194 -3.768,-0.081 -7.627,-0.623 -10.916,-2.505 -3.324,-1.855 -5.626,-5.061 -7.87,-8.12 2.061,3.182 4.271,6.47 7.62,8.541 3.351,2.036 7.316,2.678 11.14,2.853 3.858,0.19 7.681,-0.198 11.467,-0.053 3.776,0.102 7.556,0.778 10.8,2.662 3.279,1.826 6.072,4.451 8.966,6.954 1.451,1.253 2.942,2.485 4.548,3.573 1.584,1.096 3.356,2.076 5.348,2.398 1.999,0.369 4.099,-0.298 5.65,-1.5 C -0.552,14.302 0.648,12.68 1.422,10.889 2.159,9.086 2.505,7.115 2.297,5.187 2.132,3.257 1.32,1.389 0,0"
                   style="fill:#9ddcf9;fill-opacity:1;fill-rule:nonzero;stroke:none"
                   id="path24993" />
              </g>
              <g
                 transform="translate(99.2257,218.8991)"
                 id="g24999">
                <path
                   d="m 0,0 -8.236,-0.653 c -2.739,-0.248 -5.478,-0.477 -8.212,-0.757 -2.736,-0.258 -5.467,-0.566 -8.201,-0.855 l -8.207,-0.958 c 1.332,0.369 2.681,0.66 4.029,0.964 1.353,0.271 2.711,0.519 4.072,0.756 2.721,0.471 5.463,0.806 8.21,1.088 2.749,0.256 5.503,0.46 8.265,0.526 C -5.521,0.188 -2.756,0.191 0,0"
                   style="fill:#9ddcf9;fill-opacity:1;fill-rule:nonzero;stroke:none"
                   id="path24997" />
              </g>
              <g
                 transform="translate(72.6954,211.9382)"
                 id="g25003">
                <path
                   d="m 0,0 c 1.982,-1.266 3.624,-3.055 4.866,-5.074 1.239,-2.029 2.086,-4.28 2.661,-6.582 0.605,-2.305 0.796,-4.691 0.844,-7.059 0.067,-2.375 -0.181,-4.749 -0.578,-7.087 -0.889,-4.665 -2.622,-9.166 -5.125,-13.187 -1.257,-2.009 -2.725,-3.873 -4.306,-5.623 -1.638,-1.701 -3.415,-3.259 -5.333,-4.613 3.595,3.019 6.65,6.613 8.981,10.633 2.315,4.02 4.008,8.405 4.801,12.971 0.415,2.272 0.688,4.584 0.652,6.899 -0.004,2.315 -0.21,4.631 -0.683,6.895 C 6.311,-9.565 5.566,-7.345 4.444,-5.318 3.369,-3.264 1.849,-1.448 0,0"
                   style="fill:#9ddcf9;fill-opacity:1;fill-rule:nonzero;stroke:none"
                   id="path25001" />
              </g>
              <g
                 transform="translate(63.6452,209.155)"
                 id="g25007">
                <path
                   d="m 0,0 c 0.773,-1.376 1.365,-2.853 1.856,-4.362 0.461,-1.521 0.783,-3.086 0.973,-4.67 0.38,-3.17 0.136,-6.42 -0.675,-9.522 -0.833,-3.095 -2.235,-6.038 -4.137,-8.602 -0.952,-1.281 -2.008,-2.48 -3.162,-3.572 -1.176,-1.066 -2.422,-2.054 -3.777,-2.865 1.222,0.995 2.388,2.046 3.429,3.211 1.063,1.142 2.03,2.367 2.879,3.666 1.701,2.593 3.02,5.432 3.802,8.419 0.804,2.982 1.067,6.101 0.878,9.196 C 1.865,-6.004 1.153,-2.932 0,0"
                   style="fill:#9ddcf9;fill-opacity:1;fill-rule:nonzero;stroke:none"
                   id="path25005" />
              </g>
              <g
                 transform="translate(49.3649,186.3415)"
                 id="g25011">
                <path
                   d="m 0,0 c 1.512,1.487 2.823,3.131 3.875,4.922 1.041,1.794 1.876,3.701 2.428,5.692 0.574,1.986 0.866,4.046 0.922,6.12 l -0.018,1.559 -0.138,1.559 -0.222,1.556 c -0.121,0.51 -0.231,1.027 -0.335,1.549 0.206,-0.486 0.404,-0.981 0.591,-1.481 l 0.449,-1.54 0.284,-1.583 0.158,-1.606 C 8.121,14.595 7.844,12.422 7.265,10.342 6.664,8.268 5.759,6.272 4.52,4.509 L 3.543,3.225 2.471,2.026 1.281,0.952 C 0.859,0.624 0.43,0.308 0,0"
                   style="fill:#9ddcf9;fill-opacity:1;fill-rule:nonzero;stroke:none"
                   id="path25009" />
              </g>
            </g>
          </g>
        </g>
        <g
           id="g25017"
           transform="translate(258.7789,111.6071)">
          <path
             d="M 0,0 21.396,21.723 34.688,2.047 c 0,0 -5.862,-5.756 -13.606,-9.106 -7.745,-3.348 -12.993,-4.289 -12.993,-4.289 z"
             style="fill:#ff8775;fill-opacity:1;fill-rule:nonzero;stroke:none"
             id="path25019" />
        </g>
        <g
           id="g25021"
           transform="translate(280.2653,133.0934)">
          <path
             d="m 0,0 c 6.303,4.955 13.133,9.799 21.048,11.072 0.59,0.095 1.213,0.166 1.767,-0.054 0.555,-0.221 1,-0.83 0.834,-1.403 C 23.583,9.386 23.435,9.197 23.256,9.034 22.654,8.482 21.947,8.06 21.224,7.682 14.523,4.184 8.133,0.091 2.152,-4.531 10.053,-0.902 17.852,2.72 26.509,3.517 27.843,3.64 29.245,3.682 30.458,3.114 30.772,2.968 31.097,2.743 31.161,2.402 31.252,1.927 30.805,1.534 30.397,1.271 26.799,-1.048 22.542,-2.056 18.481,-3.414 13.749,-4.998 9.192,-7.104 4.919,-9.681 c 9.341,3.106 18.227,5.954 28.038,6.769 0.157,0.014 0.315,0.025 0.476,0.035 1.543,0.096 2.336,-1.869 1.149,-2.861 -0.858,-0.719 -1.859,-1.293 -2.814,-1.661 -1.635,-0.629 -3.319,-1.135 -5.03,-1.51 -1.114,-0.244 -2.241,-0.434 -3.335,-0.754 -1.165,-0.341 -2.281,-0.827 -3.393,-1.312 -3.812,-1.661 -7.623,-3.322 -11.435,-4.982 7.608,2.686 15.298,4.382 23.361,4.661 0.525,0.018 0.822,-0.578 0.877,-1.1 0.056,-0.522 -0.245,-1.033 -0.655,-1.36 -0.393,-0.315 -0.878,-0.49 -1.359,-0.642 -2.39,-0.753 -4.873,-1.206 -7.378,-1.255 -2.86,-0.055 -5.549,-1.907 -8.067,-3.258 -1.274,-0.683 -2.599,-1.469 -4.042,-1.396 -1.049,-0.228 -2.41,-0.05 -3.381,0.407 -3.274,1.542 -5.959,4.296 -7.415,7.609 -1.456,3.312 -1.671,7.154 -0.593,10.608"
             style="fill:#ff8775;fill-opacity:1;fill-rule:nonzero;stroke:none"
             id="path25023" />
        </g>
        <g
           id="g25025"
           transform="translate(244.195,142.2126)">
          <path
             d="M 0,0 16.322,16.624 30.036,-2.709 15.325,-11.841 Z"
             style="fill:#ff8775;fill-opacity:1;fill-rule:nonzero;stroke:none"
             id="path25027" />
        </g>
        <g
           id="g25029"
           transform="translate(244.195,142.2126)">
          <path
             d="m 0,0 c 0,0 5.107,12.014 9.237,15.132 4.13,3.119 14.342,6.241 15.953,5.536 1.612,-0.705 0.15,-5.504 -3.275,-7.519 C 18.49,11.135 15.019,8.681 15.019,8.681 Z"
             style="fill:#ff8775;fill-opacity:1;fill-rule:nonzero;stroke:none"
             id="path25031" />
        </g>
        <g
           id="g25033"
           transform="translate(263.9274,154.029)">
          <path
             d="m 0,0 c -1.808,-1.276 -3.732,-2.308 -5.687,-3.278 l 0.279,0.456 c 0.03,-1.095 -0.03,-2.173 -0.186,-3.255 -0.079,-0.539 -0.191,-1.077 -0.346,-1.606 -0.164,-0.522 -0.351,-1.057 -0.689,-1.497 0.118,0.534 0.156,1.057 0.18,1.586 0.026,0.528 0.041,1.054 0.044,1.583 l 0.011,3.165 0.001,0.327 0.279,0.129 C -4.135,-1.471 -2.126,-0.613 0,0"
             style="fill:#0a2a6b;fill-opacity:1;fill-rule:nonzero;stroke:none"
             id="path25035" />
        </g>
        <g
           id="g25037"
           transform="translate(384.8385,474.9802)">
          <path
             d="M 0,0 -49.098,-68.042 -4.988,3.335 Z"
             style="fill:#9ddcf9;fill-opacity:1;fill-rule:nonzero;stroke:none"
             id="path25039" />
        </g>
        <g
           id="g25041"
           transform="translate(460.0348,476.3176)">
          <path
             d="M 0,0 -120.603,-93.963 -3.78,4.66 Z"
             style="fill:#9ddcf9;fill-opacity:1;fill-rule:nonzero;stroke:none"
             id="path25043" />
        </g>
        <g
           id="g25045"
           transform="translate(467.5446,309.801)">
          <path
             d="M 0,0 -85.356,-10.901 -0.968,5.922 Z"
             style="fill:#9ddcf9;fill-opacity:1;fill-rule:nonzero;stroke:none"
             id="path25047" />
        </g>
        <g
           id="g25049"
           transform="translate(487.7311,365.4724)">
          <path
             d="M 0,0 -123.254,-49.269 -2.353,5.52 Z"
             style="fill:#9ddcf9;fill-opacity:1;fill-rule:nonzero;stroke:none"
             id="path25051" />
        </g>
      </g>
    </g>
  </g>
</svg>
